<svg width="158" height="32" viewBox="0 0 158 32" xmlns="http://www.w3.org/2000/svg">
    <path d="M32 16H28C28 12.6867 26.6578 9.68667 24.4844 7.51556C22.3133 5.34222 19.3133 4 16 4C12.6866 4 9.68665 5.34222 7.51553 7.51556L4.68665 4.68667C7.5822 1.79111 11.5822 0 16 0C20.4178 0 24.4178 1.79111 27.3133 4.68667C30.2089 7.58222 32 11.5822 32 16Z" fill="#01CCF5"/>
    <path d="M27.3133 27.3133C24.4178 30.2089 20.4178 32 16 32C11.5822 32 7.58222 30.2089 4.68667 27.3133C1.79111 24.4178 0 20.4178 0 16H4C4 19.3133 5.34222 22.3133 7.51556 24.4844C9.68667 26.6578 12.6867 28 16 28C19.3133 28 22.3133 26.6578 24.4844 24.4844L27.3133 27.3133Z" fill="#FE64D8"/>
    <path d="M10.3423 10.3422C11.9045 8.78223 13.9534 8.00001 16.0001 7.99779C18.0467 8.00001 20.0956 8.78001 21.6578 10.3422C23.2178 11.9045 24.0001 13.9533 24.0023 16C24.0001 18.0467 23.2201 20.0956 21.6578 21.6578C20.0956 23.2178 18.0467 24 16.0001 24.0022C13.9534 24 11.9045 23.22 10.3423 21.6578L16.0001 16L10.3423 10.3422Z" fill="black"/>
    <path d="M49.8003 16.7478V7.75667H53.4253V23.2722H49.9104V20.5144H49.7497C49.4017 21.3833 48.8335 22.0944 48.0429 22.6456C47.2522 23.1989 46.2788 23.4744 45.1248 23.4744C44.1161 23.4744 43.2286 23.2478 42.4578 22.7922C41.687 22.3367 41.0857 21.6744 40.6519 20.8033C40.218 19.9322 40 18.8767 40 17.6367V7.75667H43.625V17.07C43.625 18.0522 43.8915 18.8344 44.4267 19.4144C44.9596 19.9944 45.6622 20.2833 46.5277 20.2833C47.0606 20.2833 47.5782 20.1522 48.0803 19.89C48.5802 19.6278 48.9921 19.2344 49.3158 18.7122C49.6374 18.19 49.8003 17.5344 49.8003 16.7478Z" fill="black"/>
    <path d="M59.081 14.1811V23.2722H55.4559V7.75667H58.9202V10.3922H59.1008C59.4553 9.52333 60.0191 8.83444 60.7966 8.32111C61.574 7.81 62.5364 7.55444 63.6838 7.55444C64.7453 7.55444 65.6703 7.78333 66.4609 8.24111C67.2516 8.69889 67.866 9.36333 68.3021 10.2322C68.7381 11.1011 68.9539 12.1544 68.9473 13.3944V23.2722H65.3223V13.9589C65.3223 12.9211 65.058 12.11 64.5273 11.5256C63.9965 10.9411 63.2632 10.6456 62.3294 10.6456C61.6951 10.6456 61.1335 10.7856 60.6424 11.0656C60.1513 11.3456 59.7681 11.7478 59.4906 12.2722C59.2197 12.7967 59.081 13.4344 59.081 14.1811Z" fill="black"/>
    <path d="M74.5764 2.58556V23.2722H70.9514V2.58556H74.5764Z" fill="black"/>
    <path d="M83.8812 23.5744C82.3792 23.5744 81.0776 23.2411 79.9765 22.5744C78.8753 21.9078 78.023 20.9744 77.4196 19.7767C76.8161 18.5789 76.5144 17.1767 76.5144 15.5744C76.5144 13.9722 76.8161 12.5678 77.4196 11.3633C78.023 10.1589 78.8753 9.22111 79.9765 8.55444C81.0776 7.88778 82.3792 7.55444 83.8812 7.55444C85.3831 7.55444 86.6847 7.88778 87.7859 8.55444C88.887 9.22111 89.7393 10.1567 90.3428 11.3633C90.9462 12.5678 91.2479 13.9722 91.2479 15.5744C91.2479 17.1767 90.9462 18.5789 90.3428 19.7767C89.7393 20.9744 88.887 21.9078 87.7859 22.5744C86.6847 23.2411 85.3809 23.5744 83.8812 23.5744ZM83.901 20.6456C84.7158 20.6456 85.3964 20.4189 85.9425 19.9633C86.4887 19.51 86.8983 18.8989 87.1692 18.13C87.4401 17.3633 87.5745 16.5078 87.5745 15.5656C87.5745 14.6167 87.4401 13.7567 87.1692 12.9856C86.8983 12.2144 86.4909 11.6011 85.9425 11.1411C85.3964 10.6833 84.7136 10.4544 83.901 10.4544C83.0663 10.4544 82.3748 10.6833 81.8242 11.1411C81.2736 11.5989 80.864 12.2144 80.5931 12.9856C80.3222 13.7567 80.1879 14.6167 80.1879 15.5656C80.1879 16.5078 80.3222 17.3633 80.5931 18.13C80.864 18.8989 81.2736 19.51 81.8242 19.9633C82.3726 20.4189 83.0663 20.6456 83.901 20.6456Z" fill="black"/>
    <path d="M100.434 29.4144C99.1323 29.4144 98.0136 29.2367 97.0798 28.8833C96.146 28.53 95.395 28.0567 94.8268 27.4633C94.2586 26.87 93.8666 26.2144 93.6464 25.4944L96.9102 24.6967C97.0577 24.9989 97.2714 25.3011 97.5511 25.6011C97.8308 25.9011 98.2096 26.15 98.6875 26.3478C99.1654 26.5456 99.7666 26.6456 100.493 26.6456C101.522 26.6456 102.372 26.3944 103.046 25.8922C103.72 25.39 104.057 24.5678 104.057 23.4233V20.4856H103.876C103.689 20.8633 103.418 21.25 103.061 21.6478C102.705 22.0456 102.233 22.3789 101.65 22.6478C101.066 22.9167 100.333 23.0522 99.4517 23.0522C98.2712 23.0522 97.2009 22.77 96.2429 22.21C95.2849 21.6478 94.5251 20.8056 93.9613 19.6856C93.3975 18.5656 93.1156 17.1589 93.1156 15.4678C93.1156 13.7633 93.3975 12.3256 93.9613 11.15C94.5251 9.97445 95.2871 9.08333 96.2495 8.47444C97.2097 7.86556 98.2822 7.56111 99.4627 7.56111C100.363 7.56111 101.106 7.71444 101.689 8.02111C102.273 8.32778 102.74 8.69444 103.085 9.12111C103.433 9.55 103.696 9.95222 103.876 10.3278H104.077V7.75667H107.651V23.5256C107.651 24.8522 107.338 25.95 106.711 26.8189C106.083 27.6878 105.226 28.3367 104.138 28.7678C103.05 29.1989 101.815 29.4144 100.434 29.4144ZM100.465 20.1811C101.231 20.1811 101.887 19.9922 102.427 19.6144C102.969 19.2367 103.378 18.6944 103.658 17.9878C103.938 17.2811 104.079 16.4322 104.079 15.4433C104.079 14.4678 103.94 13.6122 103.663 12.8767C103.385 12.1433 102.978 11.5722 102.44 11.1656C101.903 10.7589 101.244 10.5544 100.463 10.5544C99.6543 10.5544 98.9804 10.7656 98.4408 11.19C97.9012 11.6144 97.4938 12.1944 97.2207 12.9322C96.9476 13.67 96.8111 14.5056 96.8111 15.4433C96.8111 16.3922 96.9498 17.2233 97.2273 17.9322C97.5048 18.6433 97.9145 19.1944 98.4584 19.59C99.0002 19.9856 99.6697 20.1811 100.465 20.1811Z" fill="black"/>
    <path d="M117.5 29.4144C116.198 29.4144 115.079 29.2367 114.145 28.8833C113.212 28.53 112.461 28.0567 111.892 27.4633C111.324 26.87 110.932 26.2144 110.712 25.4944L113.976 24.6967C114.123 24.9989 114.337 25.3011 114.617 25.6011C114.896 25.9011 115.275 26.15 115.753 26.3478C116.231 26.5456 116.832 26.6456 117.559 26.6456C118.588 26.6456 119.438 26.3944 120.112 25.8922C120.785 25.39 121.122 24.5678 121.122 23.4233V20.4856H120.942C120.755 20.8633 120.484 21.25 120.127 21.6478C119.77 22.0456 119.299 22.3789 118.715 22.6478C118.132 22.9167 117.398 23.0522 116.517 23.0522C115.337 23.0522 114.267 22.77 113.309 22.21C112.351 21.6478 111.591 20.8056 111.027 19.6856C110.463 18.5656 110.181 17.1589 110.181 15.4678C110.181 13.7633 110.463 12.3256 111.027 11.15C111.591 9.97445 112.353 9.08333 113.315 8.47444C114.275 7.86556 115.348 7.56111 116.528 7.56111C117.429 7.56111 118.171 7.71444 118.755 8.02111C119.339 8.32778 119.805 8.69444 120.151 9.12111C120.499 9.55 120.761 9.95222 120.942 10.3278H121.142V7.75667H124.717V23.5256C124.717 24.8522 124.404 25.95 123.776 26.8189C123.149 27.6878 122.292 28.3367 121.204 28.7678C120.114 29.1989 118.88 29.4144 117.5 29.4144ZM117.528 20.1811C118.295 20.1811 118.951 19.9922 119.49 19.6144C120.032 19.2367 120.442 18.6944 120.722 17.9878C121.001 17.2811 121.142 16.4322 121.142 15.4433C121.142 14.4678 121.003 13.6122 120.726 12.8767C120.448 12.1433 120.041 11.5722 119.504 11.1656C118.966 10.7589 118.308 10.5544 117.526 10.5544C116.718 10.5544 116.044 10.7656 115.504 11.19C114.965 11.6144 114.557 12.1944 114.284 12.9322C114.011 13.67 113.875 14.5056 113.875 15.4433C113.875 16.3922 114.013 17.2233 114.291 17.9322C114.568 18.6433 114.978 19.1944 115.522 19.59C116.066 19.9856 116.735 20.1811 117.528 20.1811Z" fill="black"/>
    <path d="M134.121 23.5744C132.579 23.5744 131.249 23.25 130.132 22.5989C129.013 21.95 128.154 21.0278 127.555 19.8322C126.954 18.6367 126.655 17.2278 126.655 15.6056C126.655 14.01 126.956 12.6078 127.56 11.3989C128.163 10.19 129.009 9.24778 130.097 8.57C131.185 7.89222 132.462 7.55444 133.931 7.55444C134.878 7.55444 135.774 7.70778 136.618 8.01444C137.461 8.32111 138.21 8.79444 138.86 9.43444C139.51 10.0744 140.023 10.8878 140.397 11.8744C140.772 12.8611 140.959 14.0344 140.959 15.3944V16.5167H128.355V14.05H137.486C137.479 13.35 137.329 12.7256 137.034 12.1767C136.741 11.6278 136.332 11.1944 135.808 10.8789C135.283 10.5633 134.676 10.4033 133.982 10.4033C133.242 10.4033 132.59 10.5833 132.031 10.9433C131.471 11.3033 131.035 11.7744 130.725 12.3567C130.414 12.9389 130.255 13.5767 130.249 14.27V16.4211C130.249 17.3233 130.412 18.0967 130.74 18.7389C131.066 19.3811 131.524 19.8744 132.112 20.2144C132.7 20.5544 133.387 20.7233 134.173 20.7233C134.7 20.7233 135.178 20.6478 135.605 20.4967C136.032 20.3456 136.402 20.1211 136.717 19.8256C137.03 19.53 137.268 19.1633 137.428 18.7233L140.811 19.1078C140.598 20.01 140.192 20.7967 139.595 21.4656C138.999 22.1344 138.237 22.6544 137.307 23.0211C136.376 23.3922 135.314 23.5744 134.121 23.5744Z" fill="black"/>
    <path d="M149.162 23.5456C147.956 23.5456 146.874 23.2322 145.918 22.6056C144.965 21.9789 144.209 21.07 143.657 19.8789C143.102 18.6878 142.826 17.2389 142.826 15.5367C142.826 13.8122 143.108 12.3567 143.672 11.1678C144.236 9.97889 144.998 9.08111 145.96 8.47C146.92 7.86111 147.993 7.55667 149.173 7.55667C150.074 7.55667 150.814 7.71 151.396 8.01667C151.977 8.32333 152.437 8.69 152.776 9.11667C153.118 9.54556 153.38 9.94778 153.567 10.3233H153.717V2.58556H157.351V23.2722H153.787V20.8278H153.567C153.38 21.2056 153.109 21.6033 152.757 22.0256C152.404 22.4478 151.935 22.8056 151.356 23.1011C150.774 23.3967 150.043 23.5456 149.162 23.5456ZM150.173 20.5456C150.94 20.5456 151.596 20.3344 152.136 19.9144C152.677 19.4944 153.087 18.9056 153.367 18.1522C153.646 17.3989 153.787 16.5189 153.787 15.5167C153.787 14.5144 153.648 13.6411 153.371 12.9011C153.094 12.1611 152.686 11.5856 152.149 11.1744C151.611 10.7633 150.953 10.5589 150.171 10.5589C149.363 10.5589 148.689 10.77 148.149 11.1944C147.61 11.6189 147.202 12.2033 146.929 12.9522C146.656 13.6989 146.52 14.5544 146.52 15.5189C146.52 16.4878 146.658 17.3522 146.936 18.11C147.213 18.8678 147.623 19.4633 148.167 19.8967C148.711 20.3278 149.378 20.5456 150.173 20.5456Z" fill="black"/>
</svg>
