<svg width="1176" height="240" viewBox="0 0 1176 240" fill="none" xmlns="http://www.w3.org/2000/svg">
<g clip-path="url(#clip0_4291_12515)">
<path d="M368.883 131.067V63.6333H396.071V180H369.709V159.317H368.503C365.894 165.833 361.632 171.167 355.702 175.3C349.773 179.45 342.472 181.517 333.817 181.517C326.252 181.517 319.595 179.817 313.814 176.4C308.033 172.983 303.524 168.017 300.27 161.483C297.016 154.95 295.381 147.033 295.381 137.733V63.6333H322.568V133.483C322.568 140.85 324.567 146.717 328.581 151.067C332.578 155.417 337.847 157.583 344.338 157.583C348.336 157.583 352.217 156.6 355.983 154.633C359.733 152.667 362.821 149.717 365.249 145.8C367.661 141.883 368.883 136.967 368.883 131.067Z" fill="#718096"/>
<path d="M438.487 111.817V180H411.3V63.6334H437.282V83.4H438.636C441.295 76.8834 445.524 71.7167 451.355 67.8667C457.185 64.0334 464.403 62.1167 473.009 62.1167C480.97 62.1167 487.908 63.8334 493.837 67.2667C499.767 70.7 504.375 75.6834 507.646 82.2C510.916 88.7167 512.535 96.6167 512.485 105.917V180H485.298V110.15C485.298 102.367 483.316 96.2834 479.335 91.9C475.354 87.5167 469.854 85.3 462.851 85.3C458.094 85.3 453.882 86.35 450.198 88.45C446.515 90.55 443.641 93.5667 441.56 97.5C439.528 101.433 438.487 106.217 438.487 111.817Z" fill="#718096"/>
<path d="M554.704 24.85V180H527.517V24.85H554.704Z" fill="#718096"/>
<path d="M624.49 182.267C613.225 182.267 603.463 179.767 595.205 174.767C586.946 169.767 580.554 162.767 576.028 153.783C571.502 144.8 569.239 134.283 569.239 122.267C569.239 110.25 571.502 99.7167 576.028 90.6834C580.554 81.65 586.946 74.6167 595.205 69.6167C603.463 64.6167 613.225 62.1167 624.49 62.1167C635.755 62.1167 645.517 64.6167 653.775 69.6167C662.034 74.6167 668.426 81.6334 672.952 90.6834C677.478 99.7167 679.741 110.25 679.741 122.267C679.741 134.283 677.478 144.8 672.952 153.783C668.426 162.767 662.034 169.767 653.775 174.767C645.517 179.767 635.738 182.267 624.49 182.267ZM624.639 160.3C630.75 160.3 635.854 158.6 639.95 155.183C644.047 151.783 647.119 147.2 649.15 141.433C651.182 135.683 652.19 129.267 652.19 122.2C652.19 115.083 651.182 108.633 649.15 102.85C647.119 97.0667 644.063 92.4667 639.95 89.0167C635.854 85.5834 630.734 83.8667 624.639 83.8667C618.379 83.8667 613.192 85.5834 609.063 89.0167C604.933 92.45 601.861 97.0667 599.829 102.85C597.798 108.633 596.79 115.083 596.79 122.2C596.79 129.267 597.798 135.683 599.829 141.433C601.861 147.2 604.933 151.783 609.063 155.183C613.175 158.6 618.379 160.3 624.639 160.3Z" fill="#718096"/>
<path d="M748.635 226.067C738.873 226.067 730.482 224.733 723.479 222.083C716.475 219.433 710.843 215.883 706.582 211.433C702.32 206.983 699.38 202.067 697.728 196.667L722.207 190.683C723.314 192.95 724.916 195.217 727.014 197.467C729.111 199.717 731.952 201.583 735.537 203.067C739.121 204.55 743.63 205.3 749.081 205.3C756.794 205.3 763.17 203.417 768.225 199.65C773.279 195.883 775.806 189.717 775.806 181.133V159.1H774.452C773.048 161.933 771.016 164.833 768.34 167.817C765.664 170.8 762.13 173.3 757.752 175.317C753.375 177.333 747.875 178.35 741.268 178.35C732.415 178.35 724.387 176.233 717.202 172.033C710.017 167.817 704.319 161.5 700.09 153.1C695.862 144.7 693.748 134.15 693.748 121.467C693.748 108.683 695.862 97.9 700.09 89.0833C704.319 80.2666 710.034 73.5833 717.252 69.0166C724.453 64.45 732.497 62.1666 741.351 62.1666C748.106 62.1666 753.673 63.3166 758.05 65.6166C762.427 67.9166 765.929 70.6666 768.522 73.8666C771.132 77.0833 773.097 80.1 774.452 82.9166H775.955V63.6333H802.762V181.9C802.762 191.85 800.417 200.083 795.709 206.6C791.002 213.117 784.577 217.983 776.417 221.217C768.258 224.45 758.991 226.067 748.635 226.067ZM748.866 156.817C754.614 156.817 759.536 155.4 763.583 152.567C767.646 149.733 770.719 145.667 772.816 140.367C774.914 135.067 775.971 128.7 775.971 121.283C775.971 113.967 774.931 107.55 772.849 102.033C770.768 96.5333 767.712 92.25 763.682 89.2C759.652 86.15 754.713 84.6166 748.85 84.6166C742.788 84.6166 737.733 86.2 733.687 89.3833C729.64 92.5666 726.584 96.9166 724.536 102.45C722.488 107.983 721.464 114.25 721.464 121.283C721.464 128.4 722.504 134.633 724.586 139.95C726.667 145.283 729.739 149.417 733.819 152.383C737.882 155.35 742.903 156.817 748.866 156.817Z" fill="#718096"/>
<path d="M876.628 226.067C866.866 226.067 858.475 224.733 851.472 222.083C844.469 219.433 838.836 215.883 834.575 211.433C830.313 206.983 827.373 202.067 825.721 196.667L850.2 190.683C851.307 192.95 852.909 195.217 855.007 197.467C857.104 199.717 859.945 201.583 863.53 203.067C867.114 204.55 871.623 205.3 877.074 205.3C884.788 205.3 891.163 203.417 896.218 199.65C901.272 195.883 903.799 189.717 903.799 181.133V159.1H902.445C901.041 161.933 899.009 164.833 896.333 167.817C893.657 170.8 890.123 173.3 885.746 175.317C881.369 177.333 875.868 178.35 869.261 178.35C860.408 178.35 852.381 176.233 845.195 172.033C838.01 167.817 832.312 161.5 828.083 153.1C823.855 144.7 821.741 134.15 821.741 121.467C821.741 108.683 823.855 97.9 828.083 89.0833C832.312 80.2666 838.027 73.5833 845.245 69.0166C852.447 64.45 860.491 62.1666 869.344 62.1666C876.099 62.1666 881.666 63.3166 886.043 65.6166C890.42 67.9166 893.922 70.6666 896.515 73.8666C899.125 77.0833 901.09 80.1 902.445 82.9166H903.948V63.6333H930.756V181.9C930.756 191.85 928.41 200.083 923.703 206.6C918.995 213.117 912.57 217.983 904.41 221.217C896.234 224.45 886.984 226.067 876.628 226.067ZM876.843 156.817C882.591 156.817 887.513 155.4 891.56 152.567C895.623 149.733 898.695 145.667 900.793 140.367C902.891 135.067 903.948 128.7 903.948 121.283C903.948 113.967 902.907 107.55 900.826 102.033C898.745 96.5333 895.689 92.25 891.659 89.2C887.629 86.15 882.69 84.6166 876.826 84.6166C870.764 84.6166 865.71 86.2 861.663 89.3833C857.616 92.5666 854.561 96.9166 852.513 102.45C850.464 107.983 849.44 114.25 849.44 121.283C849.44 128.4 850.481 134.633 852.562 139.95C854.643 145.283 857.716 149.417 861.795 152.383C865.875 155.35 870.896 156.817 876.843 156.817Z" fill="#718096"/>
<path d="M1001.29 182.267C989.723 182.267 979.746 179.833 971.372 174.95C962.981 170.083 956.539 163.167 952.047 154.2C947.537 145.233 945.291 134.667 945.291 122.5C945.291 110.533 947.554 100.017 952.08 90.95C956.605 81.8834 962.948 74.8167 971.108 69.7334C979.267 64.65 988.847 62.1167 999.865 62.1167C1006.97 62.1167 1013.69 63.2667 1020.02 65.5667C1026.34 67.8667 1031.96 71.4167 1036.83 76.2167C1041.7 81.0167 1045.55 87.1167 1048.36 94.5167C1051.17 101.917 1052.57 110.717 1052.57 120.917V129.333H958.042V110.833H1026.52C1026.47 105.583 1025.35 100.9 1023.14 96.7834C1020.94 92.6667 1017.87 89.4167 1013.94 87.05C1010.01 84.6834 1005.45 83.4834 1000.24 83.4834C994.695 83.4834 989.805 84.8334 985.61 87.5334C981.415 90.2334 978.144 93.7667 975.815 98.1334C973.486 102.5 972.297 107.283 972.247 112.483V128.617C972.247 135.383 973.47 141.183 975.931 146C978.375 150.817 981.811 154.517 986.221 157.067C990.631 159.617 995.785 160.883 1001.68 160.883C1005.63 160.883 1009.21 160.317 1012.42 159.183C1015.62 158.05 1018.4 156.367 1020.76 154.15C1023.1 151.933 1024.89 149.183 1026.09 145.883L1051.46 148.767C1049.86 155.533 1046.82 161.433 1042.35 166.45C1037.87 171.467 1032.16 175.367 1025.19 178.117C1018.2 180.9 1010.24 182.267 1001.29 182.267Z" fill="#718096"/>
<path d="M1114.1 182.05C1105.05 182.05 1096.94 179.7 1089.77 175C1082.62 170.3 1076.95 163.483 1072.81 154.55C1068.64 145.617 1066.58 134.75 1066.58 121.983C1066.58 109.05 1068.69 98.1333 1072.92 89.2166C1077.15 80.3 1082.86 73.5666 1090.08 68.9833C1097.28 64.4166 1105.33 62.1333 1114.18 62.1333C1120.94 62.1333 1126.49 63.2833 1130.85 65.5833C1135.21 67.8833 1138.66 70.6333 1141.2 73.8333C1143.76 77.05 1145.73 80.0666 1147.13 82.8833H1148.26V24.85H1175.51V180H1148.79V161.667H1147.13C1145.73 164.5 1143.7 167.483 1141.06 170.65C1138.41 173.817 1134.89 176.5 1130.55 178.717C1126.19 180.933 1120.71 182.05 1114.1 182.05ZM1121.68 159.55C1127.43 159.55 1132.35 157.967 1136.4 154.817C1140.46 151.667 1143.53 147.25 1145.63 141.6C1147.73 135.95 1148.79 129.35 1148.79 121.833C1148.79 114.317 1147.74 107.767 1145.66 102.217C1143.58 96.6666 1140.53 92.35 1136.5 89.2666C1132.47 86.1833 1127.53 84.65 1121.66 84.65C1115.6 84.65 1110.55 86.2333 1106.5 89.4166C1102.45 92.6 1099.4 96.9833 1097.35 102.6C1095.3 108.2 1094.28 114.617 1094.28 121.85C1094.28 129.117 1095.32 135.6 1097.4 141.283C1099.48 146.967 1102.55 151.433 1106.63 154.683C1110.71 157.917 1115.72 159.55 1121.68 159.55Z" fill="#718096"/>
<path d="M237.851 120H208.12C208.12 95.15 198.143 72.65 181.989 56.3667C165.852 40.0667 143.553 30 118.926 30C94.2986 30 72.0001 40.0667 55.8626 56.3667L34.8359 35.15C56.3581 13.4333 86.0894 0 118.926 0C151.763 0 181.494 13.4333 203.016 35.15C224.538 56.8667 237.851 86.8667 237.851 120Z" fill="#01CCF5"/>
<path d="M203.015 204.85C181.493 226.567 151.762 240 118.925 240C86.0887 240 56.3574 226.567 34.8352 204.85C13.313 183.133 0 153.133 0 120H29.7313C29.7313 144.85 39.7078 167.35 55.8618 183.633C71.9993 199.933 94.2978 210 118.925 210C143.553 210 165.851 199.933 181.989 183.633L203.015 204.85Z" fill="#FE64D8"/>
<path d="M76.8701 77.5642C88.4818 65.8642 103.711 59.9975 118.923 59.9808C134.136 59.9975 149.365 65.8475 160.977 77.5642C172.572 89.2808 178.386 104.647 178.403 119.997C178.386 135.347 172.588 150.714 160.977 162.431C149.365 174.131 134.136 179.998 118.923 180.014C103.711 179.998 88.4818 174.147 76.8701 162.431L118.923 119.997L76.8701 77.5642Z" fill="#718096"/>
</g>
<defs>
<clipPath id="clip0_4291_12515">
<rect width="1175.51" height="240" fill="white"/>
</clipPath>
</defs>
</svg>
